<!--webpack-->
<svg xmlns="http://www.w3.org/2000/svg" viewBox="0 0 15 17">
    <path fill="#39C2D7" fill-opacity=".5" fill-rule="evenodd"
          d="M9 11.5c0-.825-.675-1.5-1.5-1.5S6 10.675 6 11.5 6.675 13 7.5 13 9 12.325 9 11.5zm3.014-5.488V3.977C12.014 1.871 10.01 0 7.5 0 4.57 0 3.037 2.381 3.008 4.466L3 5.983h1.951L4.96 4.46C4.979 3.19 5.919 2 7.5 2c1.084 0 2.536.672 2.536 1.977v2.035H1.5c-.825 0-1.5.686-1.5 1.526v7.936C0 16.314.675 17 1.5 17h12c.825 0 1.5-.687 1.5-1.526V7.538c0-.84-.675-1.526-1.5-1.526h-1.486zM2 15V8h11v7H2z"></path>
</svg>
<svg xmlns="http://www.w3.org/2000/svg" xmlns:xlink="http://www.w3.org/1999/xlink" viewBox="0 0 18 14">
<defs>
    <path id="a" d="M0 0h380v40H0z"></path>
</defs>
<g fill="none" fill-rule="evenodd">
    <g transform="translate(-12 -13)">
        <use fill="#FFF" xlink:href="#a"></use>
        <path stroke="#CCC" d="M.5.5h379v39H.5z"></path>
    </g>
    <path fill="#F6F6F6" d="M-11-9.002A3 3 0 0 1-7.993-12H29v38H-7.993A3.009 3.009 0 0 1-11 23.002V-9.002z"></path>
    <path fill="#9ADBE6"
          d="M9 1a2 2 0 1 1 0 4 2 2 0 0 1 0-4zm0 9c2.926 0 6 1.364 6 1.969V13H3v-1.031C3 11.364 6.074 10 9 10zM9-1a3.999 3.999 0 1 0 0 8 3.999 3.999 0 1 0 0-8zm0 9c-2.665 0-8 1.335-8 4v3h16v-3c0-2.665-5.335-4-8-4z"></path>
</g>
</svg>